# AST/ASF file generated using VICON BodyLanguage
# -----------------------------------------------
:version 1.10
:name VICON
:units
  mass 1.0
  length 0.45
  angle deg
:documentation
   .ast/.asf automatically generated from VICON data using
   VICON BodyBuilder and BodyLanguage model FoxedUp or BRILLIANT.MOD
:root
   order TX TY TZ RX RY RZ
   axis XYZ
   position 0 0 0  
   orientation 0 0 0 
:bonedata
  begin
     id 1 
     name lhipjoint
     direction 0.714689 -0.624256 0.315473 
     length 2.45343 
     axis 0 0 0  XYZ
  end
  begin
     id 2 
     name lfemur
     direction 0.34202 -0.939693 0  
     length 6.59069  
     axis 0 0 20  XYZ
    dof rx ry rz
    limits (-160.0 20.0)
           (-70.0 70.0)
           (-60.0 70.0)
  end
  begin
     id 3 
     name ltibia
     direction 0.34202 -0.939693 0   
     length 6.73476   
     axis 0 0 20   XYZ
    dof rx
    limits (-10.0 170.0)
  end
  begin
     id 4 
     name lfoot
     direction 0.0718085 -0.197292 0.977711   
     length 1.52607   
     axis -90 7.62852e-016 20   XYZ
    dof rx rz
    limits (-45.0 90.0)
           (-70.0 20.0)
  end
  begin
     id 5 
     name ltoes
     direction 1.53553e-011 -4.22024e-011 1   
     length 0.777832   
     axis -90 7.62852e-016 20   XYZ
    dof rx
    limits (-90.0 20.0)
  end
  begin
     id 6 
     name rhipjoint
     direction -0.727419 -0.612432 0.309497   
     length 2.50079  
     axis 0 0 0  XYZ 
  end
  begin
     id 7 
     name rfemur
     direction -0.34202 -0.939693 0   
     length 6.51665   
     axis 0 0 -20   XYZ
    dof rx ry rz
    limits (-160.0 20.0)
           (-70.0 70.0)
           (-70.0 60.0)
  end
  begin
     id 8 
     name rtibia
     direction -0.34202 -0.939693 0   
     length 6.48919   
     axis 0 0 -20   XYZ
    dof rx
    limits (-10.0 170.0)
 end
 begin
     id 9 
     name rfoot
     direction -0.112205 -0.308282 0.944655   
     length 1.68717  
     axis -90 -7.62852e-016 -20   XYZ
    dof rx rz
    limits (-45.0 90.0)
           (-20.0 70.0)
  end
  begin
     id 10 
     name rtoes
     direction -1.53583e-011 -4.21993e-011 1   
     length 0.846859   
     axis -90 -7.62852e-016 -20   XYZ
    dof rx
    limits (-90.0 20.0)
  end
  begin
     id 11 
     name lowerback
     direction -0.00119603 0.996364 -0.0851956   
     length 1.67242   
     axis 0 0 0   XYZ
    dof rx ry rz
    limits (-20.0 45.0)
           (-30.0 30.0)
           (-30.0 30.0)
  end
  begin
     id 12 
     name upperback
     direction -0.00531001 0.998318 0.0577248   
     length 1.64819   
     axis 0 0 0   XYZ
    dof rx ry rz
    limits (-20.0 45.0)
           (-30.0 30.0)
           (-30.0 30.0)
  end
  begin
     id 13 
     name thorax
     direction -0.00653676 0.995132 0.0983291   
     length 1.67429   
     axis 0 0 0   XYZ
    dof rx ry rz
    limits (-20.0 45.0)
           (-30.0 30.0)
           (-30.0 30.0)
  end
  begin
     id 14 
     name lowerneck
     direction 0.0141424 0.999886 0.00525412   
     length 1.59623   
     axis 0 0 0   XYZ
    dof rx ry rz
    limits (-20.0 45.0)
           (-30.0 30.0)
           (-30.0 30.0)
  end
  begin
     id 15 
     name upperneck
     direction -0.0640064 0.987178 -0.146232   
     length 1.59576   
     axis 0 0 0   XYZ
    dof rx ry rz
    limits (-20.0 45.0)
           (-30.0 30.0)
           (-30.0 30.0)
  end
  begin
     id 16
     name head
     direction -0.0222942 0.998496 -0.0500859  
     length 1.60959  
     axis 0 0 0   XYZ
    dof rx ry rz
    limits (-20.0 45.0)
           (-30.0 30.0)
           (-30.0 30.0)
  end
  begin
     id 17 
     name lclavicle
     direction 0.908549 0.392612 0.142806  
     length 2.80649  
     axis 0 0 0   XYZ
    dof ry rz
    limits (-20.0 10.0)
           (0.0 20.0)
  end
  begin
     id 18 
     name lhumerus
     direction 1 -4.48968e-011 1.08832e-028   
     length 4.2884   
     axis -180 -30 -90   XYZ
    dof rx ry rz
    limits (-60.0 90.0)
           (-90.0 90.0)
           (-90.0 90.0)
  end
  begin
     id 19
     name lradius
     direction 1 -4.48952e-011 -3.02642e-028   
     length 3.06552   
     axis -180 -30 -90   XYZ
    dof rx
    limits (-10.0 170.0)
  end
  begin
     id 20
     name lwrist
     direction 1 -4.49014e-011 1.58672e-027   
     length 1.53276   
     axis -1.65735e-015 90 90   XYZ
    dof ry
    limits (-180.0 0.0)
 end
  begin
     id 21 
     name lhand
     direction 1 -4.48928e-011 3.17344e-027   
     length 0.753045   
     axis -2.02492e-015 90 90   XYZ
    dof rx rz
    limits (-90.0 90.0)
           (-45.0 45.0)
  end
  begin
     id 22 
     name lfingers
     direction 1 -4.48958e-011 6.34687e-027   
     length 0.607124   
     axis -4.04985e-015 90 90   XYZ
    dof rx
    limits (0.0 90.0)
  end
  begin
     id 23
     name lthumb
     direction 0.707107 -6.34905e-011 0.707107   
     length 0.871712   
     axis -90 45 2.85299e-015   XYZ
    dof rx rz
    limits (-45.0 45.0)
           (-45.0 45.0)
  end
  begin
     id 24 
     name rclavicle
     direction -0.885098 0.45949 0.0739604   
     length 2.9478  
     axis 0 0 0   XYZ 
    dof ry rz
    limits (-10.0 20.0)
           (-20.0 0.0)
  end
  begin
     id 25 
     name rhumerus
     direction -1 -4.4898e-011 -2.61739e-027  
     length 4.52172   
     axis -180 30 90   XYZ
    dof rx ry rz
    limits (-90.0 60.0)
           (-90.0 90.0)
           (-90.0 90.0)
  end
  begin
     id 26 
     name rradius
     direction -1 -4.48945e-011 9.02552e-028   
     length 2.8914   
     axis -180 30 90   XYZ
    dof rx
    limits (-10.0 170.0)
  end
  begin
     id 27 
     name rwrist
     direction -1 -4.49018e-011 1.58672e-027   
     length 1.4457   
     axis -1.65735e-015 -90 -90   XYZ
    dof ry
    limits (-180.0 0.0)
  end
  begin
     id 28
     name rhand
     direction -1 -4.48825e-011 3.17344e-027   
     length 0.680541   
     axis -2.02492e-015 -90 -90   XYZ
    dof rx rz
    limits (-90.0 90.0)
           (-45.0 45.0)
  end
  begin
     id 29
     name rfingers
     direction -1 -4.49067e-011 6.34687e-027   
     length 0.54867   
     axis -4.04985e-015 -90 -90   XYZ
    dof rx
    limits (0.0 90.0)
  end
  begin
     id 30
     name rthumb
     direction -0.707107 -6.34833e-011 0.707107   
     length 0.787783   
     axis -90 -45 -2.85299e-015   XYZ
    dof rx rz
    limits (-45.0 45.0)
           (-45.0 45.0)
  end
:hierarchy
  begin
    root lhipjoint rhipjoint lowerback
    lhipjoint lfemur
    lfemur ltibia
    ltibia lfoot
    lfoot ltoes
    rhipjoint rfemur
    rfemur rtibia
    rtibia rfoot
    rfoot rtoes
    lowerback upperback
    upperback thorax
    thorax lowerneck lclavicle rclavicle
    lowerneck upperneck
    upperneck head
    lclavicle lhumerus
    lhumerus lradius
    lradius lwrist
    lwrist lhand lthumb
    lhand lfingers
    rclavicle rhumerus
    rhumerus rradius
    rradius rwrist
    rwrist rhand rthumb
    rhand rfingers
  end

#!OML:ASF E:\emotionWalksFemale\Project 1\Capture day 1\Session 1\Female1.ASF
:FULLY-SPECIFIED
:DEGREES
96
root 9.20047 15.4962 23.313 178.909 -4.02408 -179.497
lowerback 8.56349 3.0871 3.36849
upperback -5.01232 4.47694 -0.200456
thorax -9.89243 1.88712 -2.84469
lowerneck -2.50438 16.4991 8.72774
upperneck 3.51724 22.0831 -7.80137
head 3.24907 10.8998 -2.52635
rclavicle 2.62893e-014 1.2424e-015
rhumerus -49.0105 13.5867 -99.2333
rradius 35.2774
rwrist 13.698
rhand 0.812444 -58.5187
rfingers 7.12502
rthumb 26.3683 -86.7053
lclavicle 2.62893e-014 1.2424e-015
lhumerus -43.0509 -13.0792 95.2004
lradius 35.0862
lwrist -14.2527
lhand -1.88173 -36.801
lfingers 7.12502
lthumb 23.7868 -8.25339
rfemur 3.04369 14.303 26.9079
rtibia 13.8812
rfoot -16.1799 -32.4896
rtoes 4.41809
lfemur -5.50995 -21.4561 -22.1801
ltibia 23.2627
lfoot -18.2284 15.9767
ltoes -41.812
97
root 9.19835 15.4975 23.3139 178.926 -4.02697 -179.509
lowerback 8.58602 3.0701 3.3949
upperback -5.02765 4.4576 -0.207163
thorax -9.92168 1.87428 -2.8656
lowerneck -2.55225 16.4882 8.73223
upperneck 3.54789 22.067 -7.80411
head 3.26542 10.89 -2.52333
rclavicle -1.88659e-014 -1.11319e-014
rhumerus -49.0248 13.6428 -99.2745
rradius 35.254
rwrist 13.6573
rhand 0.566871 -58.3
rfingers 7.12502
rthumb 26.1332 -86.5217
lclavicle -1.88659e-014 -1.11319e-014
lhumerus -43.1008 -12.9784 95.1548
lradius 35.1004
lwrist -14.4542
lhand -1.78683 -36.851
lfingers 7.12502
lthumb 23.8778 -8.31533
rfemur 3.01992 14.2788 26.877
rtibia 13.8783
rfoot -16.1661 -32.4897
rtoes 4.781
lfemur -5.52253 -21.4418 -22.1934
ltibia 23.2626
lfoot -18.3254 15.9896
ltoes -41.9682
98
root 9.19781 15.4978 23.3142 178.926 -4.0158 -179.497
lowerback 8.61187 3.07215 3.38958
upperback -5.03617 4.46237 -0.187723
thorax -9.94816 1.87652 -2.84478
lowerneck -2.59743 16.4686 8.74804
upperneck 3.58527 22.0411 -7.84179
head 3.28795 10.8742 -2.5316
rclavicle 7.88181e-014 9.64106e-015
rhumerus -49.0404 13.6596 -99.2583
rradius 35.2442
rwrist 13.6921
rhand 0.915769 -58.4482
rfingers 7.12502
rthumb 26.4672 -86.62
lclavicle 7.88181e-014 9.64106e-015
lhumerus -43.0907 -12.9154 95.1603
lradius 35.0447
lwrist -14.5179
lhand -1.72032 -36.7833
lfingers 7.12502
lthumb 23.9416 -8.25597
rfemur 3.00974 14.2984 26.8872
rtibia 13.8902
rfoot -16.1592 -32.5248
rtoes 5.08163
lfemur -5.52916 -21.4387 -22.181
ltibia 23.2693
lfoot -18.4524 16.0793
ltoes -41.8851
99
root 9.19753 15.4952 23.3127 178.884 -4.14282 -179.511
lowerback 8.62915 3.03497 3.3453
upperback -5.03107 4.40894 -0.173415
thorax -9.96072 1.8541 -2.79737
lowerneck -2.55985 16.4622 8.72573
upperneck 3.4931 22.0331 -7.88515
head 3.25611 10.8705 -2.54918
rclavicle -5.4877e-014 -6.95746e-015
rhumerus -49.0909 13.6815 -99.258
rradius 35.2618
rwrist 13.7151
rhand 1.3014 -58.6038
rfingers 7.12502
rthumb 26.8363 -86.7194
lclavicle -5.4877e-014 -6.95746e-015
lhumerus -43.0604 -12.9348 95.2071
lradius 34.9136
lwrist -14.4396
lhand -1.8754 -36.8881
lfingers 7.12502
lthumb 23.7929 -8.34135
rfemur 3.09512 14.2929 26.9065
rtibia 13.876
rfoot -16.2607 -32.6369
rtoes 5.21341
lfemur -5.50882 -21.4899 -22.2071
ltibia 23.299
lfoot -18.4518 15.8891
ltoes -41.3089
100
root 9.19587 15.4957 23.317 179.009 -3.81009 -179.516
lowerback 8.58926 3.14131 3.34374
upperback -5.077 4.54742 -0.182961
thorax -9.97792 1.9184 -2.82778
lowerneck -2.51195 16.4469 8.66848
upperneck 3.34344 22.0094 -7.88536
head 3.19524 10.8614 -2.55663
rclavicle -2.92835e-014 -1.06847e-014
rhumerus -49.1021 13.7408 -99.3153
rradius 35.2617
rwrist 13.6263
rhand 1.16187 -58.6732
rfingers 7.12502
rthumb 26.7028 -86.8093
lclavicle -2.92835e-014 -1.06847e-014
lhumerus -43.0478 -12.9584 95.1935
lradius 34.8618
lwrist -14.4049
lhand -1.92544 -36.9667
lfingers 7.12502
lthumb 23.7449 -8.41373
rfemur 2.88677 14.3195 26.8025
rtibia 13.8776
rfoot -16.0249 -32.3611
rtoes 4.64632
lfemur -5.63679 -21.378 -22.1847
ltibia 23.315
lfoot -18.2116 16.0218
ltoes -41.4026
101
root 9.19545 15.4952 23.3176 179.02 -3.90947 -179.491
lowerback 8.57663 3.09669 3.39177
upperback -5.07359 4.49191 -0.196657
thorax -9.96573 1.88829 -2.85919
lowerneck -2.26634 16.3864 8.67725
upperneck 2.97831 21.9293 -7.98061
head 3.0517 10.8307 -2.62941
rclavicle -4.37202e-014 -1.85367e-014
rhumerus -49.0511 13.7716 -99.3641
rradius 35.215
rwrist 13.5923
rhand 1.26251 -58.8571
rfingers 7.12502
rthumb 26.7991 -86.9784
lclavicle -4.37202e-014 -1.85367e-014
lhumerus -43.0262 -12.9302 95.1199
lradius 34.8879
lwrist -14.4884
lhand -1.81521 -36.8291
lfingers 7.12502
lthumb 23.8506 -8.28986
rfemur 2.8583 14.2893 26.843
rtibia 13.9341
rfoot -16.0357 -32.4233
rtoes 4.75957
lfemur -5.65771 -21.4439 -22.1447
ltibia 23.2923
lfoot -18.1444 16.0167
ltoes -41.453
102
root 9.19465 15.4956 23.3159 178.999 -3.92498 -179.543
lowerback 8.57858 3.09048 3.35215
upperback -5.05066 4.4773 -0.220814
thorax -9.94333 1.8847 -2.85992
lowerneck -2.007 16.3446 8.76041
upperneck 2.6242 21.8785 -8.17791
head 2.93137 10.8123 -2.73536
rclavicle 4.04154e-014 1.53561e-014
rhumerus -48.9805 13.7708 -99.3543
rradius 35.1617
rwrist 13.6474
rhand 1.5074 -58.8563
rfingers 7.12502
rthumb 27.0334 -86.9416
lclavicle 4.04154e-014 1.53561e-014
lhumerus -42.9959 -12.9374 95.0833
lradius 34.9043
lwrist -14.564
lhand -1.78097 -36.7736
lfingers 7.12502
lthumb 23.8835 -8.23862
rfemur 2.85797 14.2693 26.7947
rtibia 14.007
rfoot -16.0221 -32.4556
rtoes 4.76512
lfemur -5.58972 -21.4723 -22.2242
ltibia 23.2534
lfoot -18.2325 16.0595
ltoes -41.2773
103
root 9.19361 15.497 23.3149 179.019 -3.87062 -179.611
lowerback 8.55044 3.10957 3.27027
upperback -5.04834 4.49037 -0.228976
thorax -9.92836 1.89683 -2.82316
lowerneck -2.20568 16.3915 8.7258
upperneck 2.84299 21.9362 -8.07292
head 3.01744 10.8352 -2.67057
rclavicle -1.09953e-014 -6.90777e-015
rhumerus -48.9826 13.7877 -99.3213
rradius 34.9117
rwrist 14.2316
rhand 1.13675 -58.0974
rfingers 7.12502
rthumb 26.6787 -86.2371
lclavicle -1.09953e-014 -6.90777e-015
lhumerus -43.0021 -12.9478 95.0985
lradius 34.9276
lwrist -14.5809
lhand -1.82834 -36.9339
lfingers 7.12502
lthumb 23.838 -8.39303
rfemur 2.82484 14.2515 26.7016
rtibia 14.0419
rfoot -16.1179 -32.3967
rtoes 4.46376
lfemur -5.56961 -21.45 -22.3084
ltibia 23.2256
lfoot -18.192 16.2614
ltoes -42.0692
104
root 9.193 15.498 23.3164 179.06 -3.85517 -179.57
lowerback 8.53662 3.10702 3.2735
upperback -5.08095 4.48794 -0.200766
thorax -9.95852 1.89423 -2.79473
lowerneck -2.40793 16.4399 8.65213
upperneck 3.09432 21.994 -7.8776
head 3.09935 10.8602 -2.57558
rclavicle -1.81267e-014 1.59028e-015
rhumerus -49.0596 13.8582 -99.3202
rradius 34.1782
rwrist 15.9574
rhand -0.112598 -56.2682
rfingers 7.12502
rthumb 25.4825 -84.5844
lclavicle -1.81267e-014 1.59028e-015
lhumerus -43.0606 -12.9488 95.1334
lradius 34.9403
lwrist -14.5921
lhand -1.79645 -37.0446
lfingers 7.12502
lthumb 23.8686 -8.50773
rfemur 2.73933 14.2269 26.7224
rtibia 14.1043
rfoot -16.2879 -32.3427
rtoes 4.31276
lfemur -5.60975 -21.4131 -22.2412
ltibia 23.1813
lfoot -18.0957 16.309
ltoes -42.5694
105
root 9.19217 15.4966 23.3165 179.048 -3.89909 -179.548
lowerback 8.55965 3.08979 3.28464
upperback -5.09082 4.46761 -0.194574
thorax -9.98422 1.88276 -2.79306
lowerneck -2.44299 16.437 8.64684
upperneck 3.11173 21.9865 -7.8269
head 3.10304 10.857 -2.55834
rclavicle 2.68608e-014 2.68359e-015
rhumerus -49.1205 13.9868 -99.4323
rradius 34.2693
rwrist 15.751
rhand -0.0595865 -56.6069
rfingers 7.12502
rthumb 25.5333 -84.9158
lclavicle 2.68608e-014 2.68359e-015
lhumerus -43.099 -13.0136 95.1684
lradius 34.89
lwrist -14.5799
lhand -1.72553 -36.9734
lfingers 7.12502
lthumb 23.9366 -8.44538
rfemur 2.73544 14.2478 26.752
rtibia 14.157
rfoot -16.3805 -32.3526
rtoes 4.38203
lfemur -5.5959 -21.427 -22.2196
ltibia 23.1575
lfoot -18.0632 16.2569
ltoes -42.4985
